# xmcd
#
# Track frame offsets:
#  150
#  14833
#  35821
#  39960
#  64127
#  80955
#  95448
#  112007
#  129309
#  143470
#  158968
#  176458
#
# Disc length: 2673 seconds
#
# Revision: 0
# Processed by: cddbd v1.5.1PL2 Copyright (c) Steve Scherf et al.
# Submitted via: Collectorz.com_Music_Collector 6.11
#
DISCID=a30a6f0c
DTITLE=Todd Snider - Rams Head, Baltimore - 26/10/2005
DYEAR=2005
DGENRE=Alt Country
TTITLE0=Can't Complain
TTITLE1=Easy Money
TTITLE2=Intro To Ballad Of The Kingsmen
TTITLE3=Balland Of The Kingsmen
TTITLE4=Tension > Three Little Birds
TTITLE5=Betty Was Black, Willie Was White
TTITLE6=Db Cooper
TTITLE7=Ccrwrswam
TTITLE8=Statistician's Blues
TTITLE9=Incarcerated
TTITLE10=Sideshow Blues
TTITLE11=Enjoy Yourself
EXTD=
EXTT0=
EXTT1=
EXTT2=
EXTT3=
EXTT4=
EXTT5=
EXTT6=
EXTT7=
EXTT8=
EXTT9=
EXTT10=
EXTT11=
PLAYORDER=
